<svg id="Layer_1" data-name="Layer 1" xmlns="http://www.w3.org/2000/svg" viewBox="0 0 725 163.41"><defs><style>.cls-1{fill:#fff;}.cls-2{fill:#0c120c;}</style></defs><title>logo2</title><rect class="cls-1" x="79.22" y="80.08" width="562.67" height="83.33"/><path class="cls-2" d="M410.67,215.21H391.09l-4,13.55H372.28l19.92-60h17.69l19.84,60h-15.2Zm-3.09-10.64-4.12-14.36L401,180.76h-0.17l-2.32,9.36-4.29,14.45h13.4Z" transform="translate(-372.28 -168.76)"/><path class="cls-2" d="M487.44,228.76H471L453.43,196.3l-4.29-9.09h-0.09l0.34,11.27v30.27H436.34v-60h16.4l17.61,32.45,4.29,9.09h0.09L474.39,199V168.76h13.05v60Z" transform="translate(-372.28 -168.76)"/><path class="cls-2" d="M544.42,176.53q7.09,7.77,7.08,22.23T544.42,221q-7.09,7.77-20.4,7.77H500v-60h24Q537.34,168.76,544.42,176.53ZM533,212.39q3.35-4.55,3.35-13.64T533,185.12q-3.35-4.55-10.48-4.55h-7.81v36.36h7.81Q529.69,216.94,533,212.39Z" transform="translate(-372.28 -168.76)"/><path class="cls-2" d="M585,206.85h-8.85v21.91H561.64v-60h27.05q10.31,0,15.85,4.91t5.54,14.18a19.64,19.64,0,0,1-2.83,10.91,16.63,16.63,0,0,1-8.24,6.45l14.43,23.55H597.11Zm-8.85-11.09h10q4.72,0,6.87-1.82t2.15-5.82q0-3.91-2.15-5.73t-6.87-1.82h-10v15.18Z" transform="translate(-372.28 -168.76)"/><path class="cls-2" d="M666.07,216.67v12.09H620.81v-60H665v12.09H635.59V193h23.36v11.36H635.59v12.27h30.49Z" transform="translate(-372.28 -168.76)"/><path class="cls-2" d="M702.49,228.76H685.91l-16.32-60h15.89l9.36,47.73,10.22-47.73h13.4l10.39,47.64,9.36-47.64H753.5l-16.4,60H721l-6.7-29.09L711.76,185h-0.17l-2.49,14.64Z" transform="translate(-372.28 -168.76)"/><path class="cls-2" d="M834.83,168.76v60H820.06V204.58H798.42v24.18H783.64v-60h14.77v23.73h21.64V168.76h14.77Z" transform="translate(-372.28 -168.76)"/><path class="cls-2" d="M892.62,216.67v12.09H847.37v-60h44.14v12.09H862.14V193H885.5v11.36H862.14v12.27h30.49Z" transform="translate(-372.28 -168.76)"/><path class="cls-2" d="M916.33,228.76H901.56v-60h14.77v60Z" transform="translate(-372.28 -168.76)"/><path class="cls-2" d="M980,228.76h-16.4L946,196.3l-4.29-9.09h-0.09l0.34,11.27v30.27H928.87v-60h16.4l17.61,32.45,4.29,9.09h0.09L966.91,199V168.76H980v60Z" transform="translate(-372.28 -168.76)"/><path class="cls-2" d="M1014.15,203l-6.87,8.82v16.91H992.5v-60h14.77v26.64l20.27-26.64h16.4l-19.24,24.36L1045,228.76h-16.75Z" transform="translate(-372.28 -168.76)"/><path class="cls-2" d="M1097.28,216.67v12.09H1052v-60h44.14v12.09h-29.37V193h23.36v11.36h-23.36v12.27h30.49Z" transform="translate(-372.28 -168.76)"/><path class="cls-2" d="M493.5,266.46q4.74,4.65,4.74,13.72,0,9.59-4.74,14.55t-13.92,5H467.93V261.81h11.65Q488.77,261.81,493.5,266.46Zm-0.69,27.7q4.51-4.74,4.51-14,0-8.67-4.51-13.12t-13.23-4.45H468.85V298.9h10.74Q488.31,298.9,492.81,294.16Z" transform="translate(-372.28 -168.76)"/><path class="cls-2" d="M529.41,286H505.36q0.17,6.37,3.39,9.93a11.31,11.31,0,0,0,8.84,3.56,12.51,12.51,0,0,0,6.52-1.72,10.84,10.84,0,0,0,4.33-4.71l0.75,0.4a11.11,11.11,0,0,1-4.59,5,13.64,13.64,0,0,1-7,1.81q-6.2,0-9.67-4t-3.47-11q0-7,3.42-11t9.44-4a10.77,10.77,0,0,1,8.9,4q3.21,4,3.21,11.14V286ZM508.57,274.9q-3.16,3.67-3.21,10.22h23.25q-0.12-6.54-3-10.22a10,10,0,0,0-8.27-3.67A10.9,10.9,0,0,0,508.57,274.9Z" transform="translate(-372.28 -168.76)"/><path class="cls-2" d="M538.22,298.5a7.81,7.81,0,0,1-3.93-5.17l0.86-.4a7.4,7.4,0,0,0,3.65,4.85,14.33,14.33,0,0,0,7.32,1.69,12.51,12.51,0,0,0,7.23-1.87,5.81,5.81,0,0,0,2.7-5,4.9,4.9,0,0,0-2.15-4.19q-2.15-1.55-7.61-2.47-5.91-1-8.32-2.78a5.72,5.72,0,0,1-2.41-4.91,6.32,6.32,0,0,1,1.38-4,9.31,9.31,0,0,1,3.79-2.81,13.71,13.71,0,0,1,5.45-1q9.07,0,10.62,7.18l-0.8.46q-1.44-6.83-9.82-6.83a13.19,13.19,0,0,0-5,.89,8.42,8.42,0,0,0-3.47,2.44,5.52,5.52,0,0,0,1,8q2.24,1.64,7.86,2.61t8.07,2.7a5.6,5.6,0,0,1,2.32,4.76,6.51,6.51,0,0,1-3,5.63,13.87,13.87,0,0,1-8.07,2.07A15.41,15.41,0,0,1,538.22,298.5Z" transform="translate(-372.28 -168.76)"/><path class="cls-2" d="M564.08,265a1.4,1.4,0,1,1,.92.34A1.24,1.24,0,0,1,564.08,265Zm1.38,34.67h-0.92V271h0.92v28.7Z" transform="translate(-372.28 -168.76)"/><path class="cls-2" d="M596,299.3a5.28,5.28,0,0,1,2.58,4.59,6.2,6.2,0,0,1-1.64,4.25,10.74,10.74,0,0,1-4.62,2.87,20.84,20.84,0,0,1-6.83,1q-6.09,0-9.64-2.1t-3.56-5.6a5.5,5.5,0,0,1,1.75-4.1,8.72,8.72,0,0,1,4.68-2.21,7.08,7.08,0,0,1-3.42-1.87,4.22,4.22,0,0,1-1.23-3,4.66,4.66,0,0,1,1.66-3.65,8.23,8.23,0,0,1,4.31-1.87,9.2,9.2,0,0,1-4.62-3.13,8.16,8.16,0,0,1-1.64-5.08,7.92,7.92,0,0,1,3.13-6.54,12.92,12.92,0,0,1,8.24-2.47,13.43,13.43,0,0,1,6.95,1.66,6.89,6.89,0,0,1,1.89-4.65,6.13,6.13,0,0,1,4.53-1.72l0.29,0.8a5.72,5.72,0,0,0-4.28,1.61,6.43,6.43,0,0,0-1.69,4.42,8.09,8.09,0,0,1,3.56,6.89,8,8,0,0,1-3.07,6.54,12.67,12.67,0,0,1-8.18,2.47,20.21,20.21,0,0,1-3.33-.29,9.16,9.16,0,0,0-4.91,1.55A4,4,0,0,0,575,293a3.82,3.82,0,0,0,1.84,3.27,9,9,0,0,0,5.17,1.26h7.06A12.36,12.36,0,0,1,596,299.3Zm-4.25,11a10.52,10.52,0,0,0,4.33-2.55,5.26,5.26,0,0,0,1.58-3.76,4.7,4.7,0,0,0-2.35-4.08,11.34,11.34,0,0,0-6.31-1.55h-7.35a10.44,10.44,0,0,0-6.09,1.64,5,5,0,0,0-2.35,4.22q0,3.16,3.36,5.08a18.19,18.19,0,0,0,9,1.92A19.37,19.37,0,0,0,591.75,310.32Zm-14.18-24.91a12,12,0,0,0,7.58,2.24,11.74,11.74,0,0,0,7.52-2.24,7.74,7.74,0,0,0,0-11.94,11.74,11.74,0,0,0-7.52-2.24,12,12,0,0,0-7.58,2.24A7.64,7.64,0,0,0,577.57,285.41Z" transform="translate(-372.28 -168.76)"/><path class="cls-2" d="M624.39,273.15q2.84,2.73,2.84,7.66V299.7h-0.92V280.93a9.43,9.43,0,0,0-2.67-7.15,10.07,10.07,0,0,0-7.26-2.55,11.87,11.87,0,0,0-10.22,5.65,10.49,10.49,0,0,0-1.55,5.54V299.7h-0.92V271h0.92v7.63a10.7,10.7,0,0,1,4.28-5.91,12.92,12.92,0,0,1,7.66-2.3A10.85,10.85,0,0,1,624.39,273.15Z" transform="translate(-372.28 -168.76)"/><path class="cls-2" d="M659.66,286H635.61q0.17,6.37,3.39,9.93a11.31,11.31,0,0,0,8.84,3.56,12.51,12.51,0,0,0,6.52-1.72,10.84,10.84,0,0,0,4.33-4.71l0.75,0.4a11.11,11.11,0,0,1-4.59,5,13.64,13.64,0,0,1-7,1.81q-6.2,0-9.67-4t-3.47-11q0-7,3.42-11t9.44-4a10.77,10.77,0,0,1,8.9,4q3.21,4,3.21,11.14V286ZM638.82,274.9q-3.16,3.67-3.21,10.22h23.25q-0.12-6.54-3-10.22a10,10,0,0,0-8.27-3.67A10.9,10.9,0,0,0,638.82,274.9Z" transform="translate(-372.28 -168.76)"/><path class="cls-2" d="M681.71,271.8l-0.52.69a4.26,4.26,0,0,0-1.41-.95,6.29,6.29,0,0,0-2.27-.32,7.45,7.45,0,0,0-4.71,1.66,11.47,11.47,0,0,0-3.36,4.39,13.69,13.69,0,0,0-1.23,5.71v16.7H667.3V271h0.92v7.46a11.83,11.83,0,0,1,3.5-5.77,8.57,8.57,0,0,1,5.91-2.27A5.53,5.53,0,0,1,681.71,271.8Z" transform="translate(-372.28 -168.76)"/><path class="cls-2" d="M726.54,298.38a6.25,6.25,0,0,0,3.5,1.15l-0.06.75a6.91,6.91,0,0,1-3.85-1.21,24,24,0,0,1-4.48-4.25,13.54,13.54,0,0,1-11.42,5.45,12.63,12.63,0,0,1-7.78-2.3,7.39,7.39,0,0,1-3.07-6.26,9.49,9.49,0,0,1,1.23-4.91,13.66,13.66,0,0,1,3.33-3.76,48.26,48.26,0,0,1,5.65-3.73,51.53,51.53,0,0,1-4.08-6.06,8.87,8.87,0,0,1-1-4.16,7.31,7.31,0,0,1,2.18-5.57,9.39,9.39,0,0,1,11.45-.23,6.24,6.24,0,0,1,2.09,4.94,8.94,8.94,0,0,1-2,5.65q-2,2.5-7.06,5.48a1.36,1.36,0,0,0-.34.23l2.58,3.44,1.49,2q4.59,6,6.6,8.44a19.17,19.17,0,0,0,2.78-6.54,35.9,35.9,0,0,0,.89-8.21h0.86a36.64,36.64,0,0,1-.95,8.44,21.07,21.07,0,0,1-3,7A23.86,23.86,0,0,0,726.54,298.38Zm-5.45-4.25q-2.93-3.5-6.66-8.5-1.55-2.07-4.31-5.63a56.48,56.48,0,0,0-5.45,3.53,12.21,12.21,0,0,0-3.19,3.5,9,9,0,0,0-1.18,4.68,6.71,6.71,0,0,0,2.78,5.65,11.26,11.26,0,0,0,7,2.09Q717.24,299.47,721.08,294.13Zm-15.3-22.45a12.51,12.51,0,0,0,1.35,2.7q1,1.55,3.16,4.48l0.34-.17a25.12,25.12,0,0,0,6.8-5.2,8.18,8.18,0,0,0,1.87-5.25,5.52,5.52,0,0,0-1.84-4.33,8.17,8.17,0,0,0-10.1.23,6.55,6.55,0,0,0-2,5A8.31,8.31,0,0,0,705.79,271.69Z" transform="translate(-372.28 -168.76)"/><path class="cls-2" d="M777,266.46q4.74,4.65,4.74,13.72,0,9.59-4.74,14.55t-13.92,5H751.45V261.81h11.65Q772.29,261.81,777,266.46Zm-0.69,27.7q4.51-4.74,4.51-14,0-8.67-4.51-13.12t-13.23-4.45H752.37V298.9h10.74Q771.83,298.9,776.34,294.16Z" transform="translate(-372.28 -168.76)"/><path class="cls-2" d="M812.93,286H788.88q0.17,6.37,3.39,9.93a11.31,11.31,0,0,0,8.84,3.56,12.51,12.51,0,0,0,6.52-1.72A10.84,10.84,0,0,0,812,293l0.75,0.4a11.11,11.11,0,0,1-4.59,5,13.64,13.64,0,0,1-7,1.81q-6.2,0-9.67-4t-3.47-11q0-7,3.42-11t9.44-4a10.77,10.77,0,0,1,8.9,4q3.21,4,3.21,11.14V286ZM792.09,274.9q-3.16,3.67-3.21,10.22h23.25q-0.12-6.54-3-10.22a10,10,0,0,0-8.27-3.67A10.9,10.9,0,0,0,792.09,274.9Z" transform="translate(-372.28 -168.76)"/><path class="cls-2" d="M841.23,271l-12.06,28.7h-1L816.15,271h1l11.54,27.55L840.2,271h1Z" transform="translate(-372.28 -168.76)"/><path class="cls-2" d="M869.59,286H845.54q0.17,6.37,3.39,9.93a11.31,11.31,0,0,0,8.84,3.56,12.51,12.51,0,0,0,6.52-1.72,10.84,10.84,0,0,0,4.33-4.71l0.75,0.4a11.11,11.11,0,0,1-4.59,5,13.64,13.64,0,0,1-7,1.81q-6.2,0-9.67-4t-3.47-11q0-7,3.42-11t9.44-4a10.77,10.77,0,0,1,8.9,4q3.21,4,3.21,11.14V286ZM848.75,274.9q-3.16,3.67-3.21,10.22h23.25q-0.12-6.54-3-10.22a10,10,0,0,0-8.27-3.67A10.9,10.9,0,0,0,848.75,274.9Z" transform="translate(-372.28 -168.76)"/><path class="cls-2" d="M877.92,293.56a7.71,7.71,0,0,0,1,4.51,3.66,3.66,0,0,0,3.16,1.41,6.75,6.75,0,0,0,3.33-.69v0.8a7,7,0,0,1-3.33.69,4.59,4.59,0,0,1-3.85-1.61q-1.26-1.61-1.26-5.11V257.8h0.92v35.76Z" transform="translate(-372.28 -168.76)"/><path class="cls-2" d="M911.61,274.41q3.56,4,3.56,10.94t-3.56,10.94q-3.56,4-9.82,4t-9.85-4q-3.59-4-3.59-10.94T892,274.41q3.59-4,9.85-4T911.61,274.41Zm-19,.57q-3.36,3.76-3.36,10.36t3.36,10.36a13,13,0,0,0,18.28,0q3.33-3.76,3.33-10.36T910.93,275A13,13,0,0,0,892.64,275Z" transform="translate(-372.28 -168.76)"/><path class="cls-2" d="M945.28,274.39q3.47,4,3.47,11t-3.47,11q-3.47,4-9.67,4a12,12,0,0,1-7.55-2.35,11.71,11.71,0,0,1-4.16-6.72v20.55H923V271h0.92v8.61a12,12,0,0,1,4.13-6.77,11.82,11.82,0,0,1,7.58-2.41Q941.81,270.42,945.28,274.39Zm-0.72,21.35q3.27-3.73,3.27-10.39T944.56,275q-3.27-3.73-9.13-3.73A10.41,10.41,0,0,0,927,275q-3.13,3.73-3.13,10.16v0.4q0,6.49,3.13,10.22a10.41,10.41,0,0,0,8.41,3.73Q941.29,299.47,944.56,295.74Z" transform="translate(-372.28 -168.76)"/><path class="cls-2" d="M979.58,286H955.53q0.17,6.37,3.39,9.93a11.31,11.31,0,0,0,8.84,3.56,12.51,12.51,0,0,0,6.52-1.72,10.84,10.84,0,0,0,4.33-4.71l0.75,0.4a11.11,11.11,0,0,1-4.59,5,13.64,13.64,0,0,1-7,1.81q-6.2,0-9.67-4t-3.47-11q0-7,3.42-11t9.44-4a10.77,10.77,0,0,1,8.9,4q3.21,4,3.21,11.14V286ZM958.74,274.9q-3.16,3.67-3.21,10.22h23.25q-0.12-6.54-3-10.22a10,10,0,0,0-8.27-3.67A10.9,10.9,0,0,0,958.74,274.9Z" transform="translate(-372.28 -168.76)"/><path class="cls-2" d="M1001.62,271.8l-0.52.69a4.26,4.26,0,0,0-1.41-.95,6.29,6.29,0,0,0-2.27-.32,7.45,7.45,0,0,0-4.71,1.66,11.47,11.47,0,0,0-3.36,4.39,13.69,13.69,0,0,0-1.23,5.71v16.7h-0.92V271h0.92v7.46a11.83,11.83,0,0,1,3.5-5.77,8.57,8.57,0,0,1,5.91-2.27A5.53,5.53,0,0,1,1001.62,271.8Z" transform="translate(-372.28 -168.76)"/></svg>